# xmcd CD database file
#
# Track frame offsets:
#	150
#	20629
#	35551
#	52518
#	65860
#	80939
#	105289
#	114498
#	128852
#	152799
#	157876
#	164843
#	170180
#	178304
#	183933
#	189682
#	195819
#	207736
#	218698
#	233205
#	239912
#	251964
#	263108
#	271517
#	279549
#	285401
#	290169
#	296226
#	305515
#	313897
#	319236
#	327213
#
# Disc length: 4447 seconds
#
# Revision: 0
# Processed by: cddbd v1.5.1PL0 Copyright (c) Steve Scherf et al.
# Submitted via: CDex 1.51
#
DISCID=fa115d20
DTITLE=Igreja - Cantos da Semana Santo e Ressurreicao Ano A
DYEAR=2000
DGENRE=Religioso
TTITLE0=Bencao dos Ramos
TTITLE1=Salmo Responsorial 21
TTITLE2=Entra Ceia-Nos nos gloriamos
TTITLE3=Salmo Responsorial 115
TTITLE4=Lava pes-Nos nos gloriamos
TTITLE5=Salmo Responsorial 30
TTITLE6=Eu me entrego
TTITLE7=Lamento do Senhor-Que te fiz meu povo eleito
TTITLE8=Preconio pascal-Exultat
TTITLE9=Salmo Resp 32 - 1 leitura
TTITLE10=Salmo Resp 15 - 2 leitura
TTITLE11=Salmo Resp Exodo 15 - 3 leitura
TTITLE12=Salmo Resp 29 - 4 leitura
TTITLE13=Salmo Resp Isaias 15 - 5 leitura
TTITLE14=Salmo Resp 18b - 6 leitura
TTITLE15=Salmo Resp 41 - 7 leitura
TTITLE16=Gloria Ir Miria
TTITLE17=Aclamacao-Rendei gracas ao Senhor
TTITLE18=Ladainha de todos os santos
TTITLE19=Oferendas- Eu creio num mundo novo
TTITLE20=Comunhao Cristo nossa pascoa
TTITLE21=Entr Ressurreicao O Senhor ressurgiu
TTITLE22=Ato penitencial
TTITLE23=Salmo Responsorial 117
TTITLE24=Salmo Responsorial 117
TTITLE25=Aclamacao-Aleluia alegria Casa Forte
TTITLE26=Salmo Resp 2 dom pascoa
TTITLE27=Salmo Resp 3 dom pascoa
TTITLE28=Salmo Resp 4 dom pascoa
TTITLE29=Salmo Resp 5 dom pascoa
TTITLE30=Sequencia Pentecoste
TTITLE31=Sequencia Corpus Cristi
EXTD=YEAR: 2000
EXTT0=
EXTT1=
EXTT2=
EXTT3=
EXTT4=
EXTT5=
EXTT6=
EXTT7=
EXTT8=
EXTT9=
EXTT10=
EXTT11=
EXTT12=
EXTT13=
EXTT14=
EXTT15=
EXTT16=
EXTT17=
EXTT18=
EXTT19=
EXTT20=
EXTT21=
EXTT22=
EXTT23=
EXTT24=
EXTT25=
EXTT26=
EXTT27=
EXTT28=
EXTT29=
EXTT30=
EXTT31=
PLAYORDER=
